<mxfile host="app.diagrams.net" agent="Mozilla/5.0 (Macintosh; Intel Mac OS X 10_15_7) AppleWebKit/605.1.15 (KHTML, like Gecko) Version/18.4 Safari/605.1.15" version="28.2.3">
  <diagram name="Trang-1" id="mekDvHXqTkwWTWiZzJnL">
    <mxGraphModel dx="1751" dy="1331" grid="0" gridSize="10" guides="1" tooltips="1" connect="1" arrows="1" fold="1" page="0" pageScale="1" pageWidth="827" pageHeight="1169" math="0" shadow="0">
      <root>
        <mxCell id="0" />
        <mxCell id="1" parent="0" />
        <object placeholders="1" c4Name="Customer" c4Type="Person" c4Description="Search for books, borrow books online, renew, view borrowing history." label="&lt;font style=&quot;font-size: 16px&quot;&gt;&lt;b&gt;%c4Name%&lt;/b&gt;&lt;/font&gt;&lt;div&gt;[%c4Type%]&lt;/div&gt;&lt;br&gt;&lt;div&gt;&lt;font style=&quot;font-size: 11px&quot;&gt;&lt;font color=&quot;#cccccc&quot;&gt;%c4Description%&lt;/font&gt;&lt;/div&gt;" id="aeV7mFy18l9Bh3H_OyxH-1">
          <mxCell style="html=1;fontSize=11;dashed=0;whiteSpace=wrap;fillColor=#083F75;strokeColor=#06315C;fontColor=#ffffff;shape=mxgraph.c4.person2;align=center;metaEdit=1;points=[[0.5,0,0],[1,0.5,0],[1,0.75,0],[0.75,1,0],[0.5,1,0],[0.25,1,0],[0,0.75,0],[0,0.5,0]];resizable=0;" vertex="1" parent="1">
            <mxGeometry x="-128" y="-217" width="200" height="180" as="geometry" />
          </mxCell>
        </object>
        <mxCell id="aeV7mFy18l9Bh3H_OyxH-2" value="" style="rounded=0;whiteSpace=wrap;html=1;dashed=1;dashPattern=8 8;" vertex="1" parent="1">
          <mxGeometry x="-164" y="175" width="1106" height="501" as="geometry" />
        </mxCell>
        <object placeholders="1" c4Name="Web Application" c4Type="Container" c4Technology="Java and Spring MVC" c4Description="Provide static content and online gallery page applications." label="&lt;font style=&quot;font-size: 16px&quot;&gt;&lt;b&gt;%c4Name%&lt;/b&gt;&lt;/font&gt;&lt;div&gt;[%c4Type%: %c4Technology%]&lt;/div&gt;&lt;br&gt;&lt;div&gt;&lt;font style=&quot;font-size: 11px&quot;&gt;&lt;font color=&quot;#E6E6E6&quot;&gt;%c4Description%&lt;/font&gt;&lt;/div&gt;" id="aeV7mFy18l9Bh3H_OyxH-3">
          <mxCell style="rounded=1;whiteSpace=wrap;html=1;fontSize=11;labelBackgroundColor=none;fillColor=#23A2D9;fontColor=#ffffff;align=center;arcSize=10;strokeColor=#0E7DAD;metaEdit=1;resizable=0;points=[[0.25,0,0],[0.5,0,0],[0.75,0,0],[1,0.25,0],[1,0.5,0],[1,0.75,0],[0.75,1,0],[0.5,1,0],[0.25,1,0],[0,0.75,0],[0,0.5,0],[0,0.25,0]];" vertex="1" parent="1">
            <mxGeometry x="-137" y="202" width="240" height="120" as="geometry" />
          </mxCell>
        </object>
        <object placeholders="1" c4Name="Single-page Application" c4Type="Container" c4Technology="e.g. JavaScript, Angular etc." c4Description="Provides all of the library online functionally to customers or administrators via their web browser." label="&lt;font style=&quot;font-size: 16px&quot;&gt;&lt;b&gt;%c4Name%&lt;/b&gt;&lt;/font&gt;&lt;div&gt;[%c4Type%:&amp;nbsp;%c4Technology%]&lt;/div&gt;&lt;br&gt;&lt;div&gt;&lt;font style=&quot;font-size: 11px&quot;&gt;&lt;font color=&quot;#E6E6E6&quot;&gt;%c4Description%&lt;/font&gt;&lt;/div&gt;" id="aeV7mFy18l9Bh3H_OyxH-4">
          <mxCell style="shape=mxgraph.c4.webBrowserContainer2;whiteSpace=wrap;html=1;boundedLbl=1;rounded=0;labelBackgroundColor=none;strokeColor=#118ACD;fillColor=#23A2D9;strokeColor=#118ACD;strokeColor2=#0E7DAD;fontSize=12;fontColor=#ffffff;align=center;metaEdit=1;points=[[0.5,0,0],[1,0.25,0],[1,0.5,0],[1,0.75,0],[0.5,1,0],[0,0.75,0],[0,0.5,0],[0,0.25,0]];resizable=0;" vertex="1" parent="1">
            <mxGeometry x="269" y="224" width="240" height="160" as="geometry" />
          </mxCell>
        </object>
        <object placeholders="1" c4Name="Mobile App" c4Type="Mobile" c4Technology="Xamarin" c4Description="Provides a suitable library system interface on the phone." label="&lt;font style=&quot;font-size: 16px&quot;&gt;&lt;b&gt;%c4Name%&lt;/b&gt;&lt;/font&gt;&lt;div&gt;[%c4Type%: %c4Technology%]&lt;/div&gt;&lt;br&gt;&lt;div&gt;&lt;font style=&quot;font-size: 11px&quot;&gt;%c4Description%&lt;/font&gt;&lt;/div&gt;" id="aeV7mFy18l9Bh3H_OyxH-8">
          <mxCell style="rounded=1;whiteSpace=wrap;html=1;labelBackgroundColor=none;fillColor=light-dark(#0096ff, #176592);fontColor=#ffffff;align=center;arcSize=6;strokeColor=#2086C9;metaEdit=1;resizable=0;points=[[0.25,0,0],[0.5,0,0],[0.75,0,0],[1,0.25,0],[1,0.5,0],[1,0.75,0],[0.75,1,0],[0.5,1,0],[0.25,1,0],[0,0.75,0],[0,0.5,0],[0,0.25,0]];" vertex="1" parent="1">
            <mxGeometry x="627" y="205" width="240" height="120" as="geometry" />
          </mxCell>
        </object>
        <object placeholders="1" c4Name="API Application" c4Type="Container" c4Technology="Java and Spring MVC" c4Description="Handle business logic via JSON/HTTPS API" label="&lt;font style=&quot;font-size: 16px&quot;&gt;&lt;b&gt;%c4Name%&lt;/b&gt;&lt;/font&gt;&lt;div&gt;[%c4Type%: %c4Technology%]&lt;/div&gt;&lt;br&gt;&lt;div&gt;&lt;font style=&quot;font-size: 11px&quot;&gt;&lt;font color=&quot;#E6E6E6&quot;&gt;%c4Description%&lt;/font&gt;&lt;/div&gt;" id="aeV7mFy18l9Bh3H_OyxH-12">
          <mxCell style="rounded=1;whiteSpace=wrap;html=1;fontSize=11;labelBackgroundColor=none;fillColor=#23A2D9;fontColor=#ffffff;align=center;arcSize=10;strokeColor=#0E7DAD;metaEdit=1;resizable=0;points=[[0.25,0,0],[0.5,0,0],[0.75,0,0],[1,0.25,0],[1,0.5,0],[1,0.75,0],[0.75,1,0],[0.5,1,0],[0.25,1,0],[0,0.75,0],[0,0.5,0],[0,0.25,0]];" vertex="1" parent="1">
            <mxGeometry x="430" y="473" width="240" height="120" as="geometry" />
          </mxCell>
        </object>
        <object placeholders="1" c4Name="Database" c4Type="" c4Technology="Microsoft SQL Server" c4Description="Stores user registration information, access logs, the book information, ..." label="&lt;font style=&quot;font-size: 16px&quot;&gt;&lt;b&gt;%c4Name%&lt;/b&gt;&lt;/font&gt;&lt;div&gt;[%c4Type%:&amp;nbsp;%c4Technology%]&lt;/div&gt;&lt;br&gt;&lt;div&gt;&lt;font style=&quot;font-size: 11px&quot;&gt;&lt;font color=&quot;#E6E6E6&quot;&gt;%c4Description%&lt;/font&gt;&lt;/div&gt;" id="aeV7mFy18l9Bh3H_OyxH-13">
          <mxCell style="shape=cylinder3;size=15;whiteSpace=wrap;html=1;boundedLbl=1;rounded=0;labelBackgroundColor=none;fillColor=#23A2D9;fontSize=12;fontColor=#ffffff;align=center;strokeColor=#0E7DAD;metaEdit=1;points=[[0.5,0,0],[1,0.25,0],[1,0.5,0],[1,0.75,0],[0.5,1,0],[0,0.75,0],[0,0.5,0],[0,0.25,0]];resizable=0;" vertex="1" parent="1">
            <mxGeometry x="-128" y="473" width="240" height="120" as="geometry" />
          </mxCell>
        </object>
        <object placeholders="1" c4Name="E-mail System" c4Type="Software System" c4Description="Automated processing of notification emails." label="&lt;font style=&quot;font-size: 16px&quot;&gt;&lt;b&gt;%c4Name%&lt;/b&gt;&lt;/font&gt;&lt;div&gt;[%c4Type%]&lt;/div&gt;&lt;br&gt;&lt;div&gt;&lt;font style=&quot;font-size: 11px&quot;&gt;&lt;font color=&quot;#cccccc&quot;&gt;%c4Description%&lt;/font&gt;&lt;/div&gt;" id="aeV7mFy18l9Bh3H_OyxH-14">
          <mxCell style="rounded=1;whiteSpace=wrap;html=1;labelBackgroundColor=none;fillColor=light-dark(#929292, #7e7787);fontColor=#ffffff;align=center;arcSize=10;strokeColor=#736782;metaEdit=1;resizable=0;points=[[0.25,0,0],[0.5,0,0],[0.75,0,0],[1,0.25,0],[1,0.5,0],[1,0.75,0],[0.75,1,0],[0.5,1,0],[0.25,1,0],[0,0.75,0],[0,0.5,0],[0,0.25,0]];" vertex="1" parent="1">
            <mxGeometry x="1048" y="202" width="240" height="120" as="geometry" />
          </mxCell>
        </object>
        <object placeholders="1" c4Name="Payment Gateway" c4Type="Software System" c4Description="Process membership fees or late fees." label="&lt;font style=&quot;font-size: 16px&quot;&gt;&lt;b&gt;%c4Name%&lt;/b&gt;&lt;/font&gt;&lt;div&gt;[%c4Type%]&lt;/div&gt;&lt;br&gt;&lt;div&gt;&lt;font style=&quot;font-size: 11px&quot;&gt;&lt;font color=&quot;#cccccc&quot;&gt;%c4Description%&lt;/font&gt;&lt;/div&gt;" id="aeV7mFy18l9Bh3H_OyxH-15">
          <mxCell style="rounded=1;whiteSpace=wrap;html=1;labelBackgroundColor=none;fillColor=light-dark(#929292, #7e7787);fontColor=#ffffff;align=center;arcSize=10;strokeColor=#736782;metaEdit=1;resizable=0;points=[[0.25,0,0],[0.5,0,0],[0.75,0,0],[1,0.25,0],[1,0.5,0],[1,0.75,0],[0.75,1,0],[0.5,1,0],[0.25,1,0],[0,0.75,0],[0,0.5,0],[0,0.25,0]];" vertex="1" parent="1">
            <mxGeometry x="1048" y="371" width="240" height="120" as="geometry" />
          </mxCell>
        </object>
        <object placeholders="1" c4Name="Administrator / librarian" c4Type="Person" c4Description="Manage book inventory, process borrow/return requests, track late fees." label="&lt;font style=&quot;font-size: 16px&quot;&gt;&lt;b&gt;%c4Name%&lt;/b&gt;&lt;/font&gt;&lt;div&gt;[%c4Type%]&lt;/div&gt;&lt;br&gt;&lt;div&gt;&lt;font style=&quot;font-size: 11px&quot;&gt;&lt;font color=&quot;#cccccc&quot;&gt;%c4Description%&lt;/font&gt;&lt;/div&gt;" id="aeV7mFy18l9Bh3H_OyxH-16">
          <mxCell style="html=1;fontSize=11;dashed=0;whiteSpace=wrap;fillColor=#083F75;strokeColor=#06315C;fontColor=#ffffff;shape=mxgraph.c4.person2;align=center;metaEdit=1;points=[[0.5,0,0],[1,0.5,0],[1,0.75,0],[0.75,1,0],[0.5,1,0],[0.25,1,0],[0,0.75,0],[0,0.5,0]];resizable=0;" vertex="1" parent="1">
            <mxGeometry x="653" y="-247" width="200" height="180" as="geometry" />
          </mxCell>
        </object>
        <mxCell id="aeV7mFy18l9Bh3H_OyxH-17" value="" style="endArrow=classic;html=1;rounded=0;exitX=0.25;exitY=1;exitDx=0;exitDy=0;exitPerimeter=0;entryX=0.25;entryY=0;entryDx=0;entryDy=0;entryPerimeter=0;dashed=1;dashPattern=8 8;" edge="1" parent="1" source="aeV7mFy18l9Bh3H_OyxH-1" target="aeV7mFy18l9Bh3H_OyxH-3">
          <mxGeometry width="50" height="50" relative="1" as="geometry">
            <mxPoint x="335" y="421" as="sourcePoint" />
            <mxPoint x="385" y="371" as="targetPoint" />
          </mxGeometry>
        </mxCell>
        <mxCell id="aeV7mFy18l9Bh3H_OyxH-19" value="&lt;font style=&quot;font-size: 14px;&quot;&gt;&lt;b&gt;Visit website&lt;/b&gt;&lt;/font&gt;&lt;div&gt;&lt;font style=&quot;font-size: 12px;&quot;&gt;[HTTPS]&lt;/font&gt;&lt;/div&gt;" style="edgeLabel;html=1;align=center;verticalAlign=middle;resizable=0;points=[];" vertex="1" connectable="0" parent="aeV7mFy18l9Bh3H_OyxH-17">
          <mxGeometry x="-0.1642" y="-2" relative="1" as="geometry">
            <mxPoint x="1" as="offset" />
          </mxGeometry>
        </mxCell>
        <mxCell id="aeV7mFy18l9Bh3H_OyxH-18" value="&lt;font style=&quot;font-size: 14px;&quot;&gt;&lt;b&gt;Online Library System&lt;/b&gt;&lt;/font&gt;" style="text;html=1;align=center;verticalAlign=middle;whiteSpace=wrap;rounded=0;" vertex="1" parent="1">
          <mxGeometry x="-157" y="639" width="166" height="30" as="geometry" />
        </mxCell>
        <mxCell id="aeV7mFy18l9Bh3H_OyxH-20" value="" style="endArrow=classic;html=1;rounded=0;exitX=0.5;exitY=1;exitDx=0;exitDy=0;exitPerimeter=0;entryX=0;entryY=0.25;entryDx=0;entryDy=0;entryPerimeter=0;dashed=1;dashPattern=8 8;" edge="1" parent="1" source="aeV7mFy18l9Bh3H_OyxH-1" target="aeV7mFy18l9Bh3H_OyxH-4">
          <mxGeometry width="50" height="50" relative="1" as="geometry">
            <mxPoint x="160" y="42" as="sourcePoint" />
            <mxPoint x="-7" y="212" as="targetPoint" />
          </mxGeometry>
        </mxCell>
        <mxCell id="aeV7mFy18l9Bh3H_OyxH-21" value="&lt;font style=&quot;font-size: 14px;&quot;&gt;&lt;b&gt;View books&amp;nbsp;&lt;/b&gt;&lt;/font&gt;&lt;div&gt;&lt;font style=&quot;font-size: 14px;&quot;&gt;&lt;b&gt;to borrow/return&amp;nbsp;&lt;/b&gt;&lt;/font&gt;&lt;/div&gt;&lt;div&gt;&lt;b style=&quot;font-size: 14px;&quot;&gt;and process payments&lt;/b&gt;&lt;/div&gt;" style="edgeLabel;html=1;align=center;verticalAlign=middle;resizable=0;points=[];" vertex="1" connectable="0" parent="aeV7mFy18l9Bh3H_OyxH-20">
          <mxGeometry x="-0.1642" y="-2" relative="1" as="geometry">
            <mxPoint x="-16" y="-5" as="offset" />
          </mxGeometry>
        </mxCell>
        <mxCell id="aeV7mFy18l9Bh3H_OyxH-22" value="" style="endArrow=classic;html=1;rounded=0;exitX=0.75;exitY=1;exitDx=0;exitDy=0;exitPerimeter=0;entryX=0.25;entryY=0;entryDx=0;entryDy=0;entryPerimeter=0;dashed=1;dashPattern=8 8;" edge="1" parent="1" source="aeV7mFy18l9Bh3H_OyxH-1" target="aeV7mFy18l9Bh3H_OyxH-8">
          <mxGeometry width="50" height="50" relative="1" as="geometry">
            <mxPoint x="110" y="42" as="sourcePoint" />
            <mxPoint x="215" y="255" as="targetPoint" />
          </mxGeometry>
        </mxCell>
        <mxCell id="aeV7mFy18l9Bh3H_OyxH-23" value="&lt;font style=&quot;font-size: 14px;&quot;&gt;&lt;b&gt;View books&amp;nbsp;&lt;/b&gt;&lt;/font&gt;&lt;div&gt;&lt;font style=&quot;font-size: 14px;&quot;&gt;&lt;b&gt;to borrow/return&amp;nbsp;&lt;/b&gt;&lt;/font&gt;&lt;/div&gt;&lt;div&gt;&lt;b style=&quot;font-size: 14px;&quot;&gt;and process payments&lt;/b&gt;&lt;/div&gt;" style="edgeLabel;html=1;align=center;verticalAlign=middle;resizable=0;points=[];" vertex="1" connectable="0" parent="aeV7mFy18l9Bh3H_OyxH-22">
          <mxGeometry x="-0.1642" y="-2" relative="1" as="geometry">
            <mxPoint x="-128" y="-47" as="offset" />
          </mxGeometry>
        </mxCell>
        <mxCell id="aeV7mFy18l9Bh3H_OyxH-27" value="" style="endArrow=classic;html=1;rounded=0;exitX=0.25;exitY=1;exitDx=0;exitDy=0;exitPerimeter=0;entryX=0.75;entryY=0;entryDx=0;entryDy=0;entryPerimeter=0;dashed=1;dashPattern=8 8;" edge="1" parent="1" source="aeV7mFy18l9Bh3H_OyxH-16" target="aeV7mFy18l9Bh3H_OyxH-3">
          <mxGeometry width="50" height="50" relative="1" as="geometry">
            <mxPoint x="32" y="42" as="sourcePoint" />
            <mxPoint x="611" y="215" as="targetPoint" />
          </mxGeometry>
        </mxCell>
        <mxCell id="aeV7mFy18l9Bh3H_OyxH-28" value="&lt;span style=&quot;font-size: 14px;&quot;&gt;&lt;b&gt;Visit website&lt;/b&gt;&lt;/span&gt;&lt;div&gt;&lt;font style=&quot;font-size: 12px;&quot;&gt;[HTTPS]&lt;/font&gt;&lt;/div&gt;" style="edgeLabel;html=1;align=center;verticalAlign=middle;resizable=0;points=[];" vertex="1" connectable="0" parent="aeV7mFy18l9Bh3H_OyxH-27">
          <mxGeometry x="-0.1642" y="-2" relative="1" as="geometry">
            <mxPoint x="54" y="-15" as="offset" />
          </mxGeometry>
        </mxCell>
        <mxCell id="aeV7mFy18l9Bh3H_OyxH-29" value="" style="endArrow=classic;html=1;rounded=0;exitX=0.5;exitY=1;exitDx=0;exitDy=0;exitPerimeter=0;entryX=0.5;entryY=0;entryDx=0;entryDy=0;entryPerimeter=0;dashed=1;dashPattern=8 8;" edge="1" parent="1" source="aeV7mFy18l9Bh3H_OyxH-16" target="aeV7mFy18l9Bh3H_OyxH-4">
          <mxGeometry width="50" height="50" relative="1" as="geometry">
            <mxPoint x="452" y="42" as="sourcePoint" />
            <mxPoint x="53" y="212" as="targetPoint" />
          </mxGeometry>
        </mxCell>
        <mxCell id="aeV7mFy18l9Bh3H_OyxH-30" value="&lt;span style=&quot;font-size: 14px;&quot;&gt;&lt;b&gt;View book inventory,&amp;nbsp;&lt;/b&gt;&lt;/span&gt;&lt;div&gt;&lt;span style=&quot;font-size: 14px;&quot;&gt;&lt;b&gt;process borrow/return&amp;nbsp;&lt;/b&gt;&lt;/span&gt;&lt;/div&gt;&lt;div&gt;&lt;span style=&quot;font-size: 14px;&quot;&gt;&lt;b&gt;request,&amp;nbsp;&lt;/b&gt;&lt;/span&gt;&lt;b style=&quot;font-size: 14px;&quot;&gt;track late fees&lt;/b&gt;&lt;/div&gt;" style="edgeLabel;html=1;align=center;verticalAlign=middle;resizable=0;points=[];" vertex="1" connectable="0" parent="aeV7mFy18l9Bh3H_OyxH-29">
          <mxGeometry x="-0.1642" y="-2" relative="1" as="geometry">
            <mxPoint x="25" y="-8" as="offset" />
          </mxGeometry>
        </mxCell>
        <mxCell id="aeV7mFy18l9Bh3H_OyxH-33" value="" style="endArrow=classic;html=1;rounded=0;exitX=0.75;exitY=1;exitDx=0;exitDy=0;exitPerimeter=0;entryX=0.75;entryY=0;entryDx=0;entryDy=0;entryPerimeter=0;dashed=1;dashPattern=8 8;" edge="1" parent="1" source="aeV7mFy18l9Bh3H_OyxH-16" target="aeV7mFy18l9Bh3H_OyxH-8">
          <mxGeometry width="50" height="50" relative="1" as="geometry">
            <mxPoint x="502" y="42" as="sourcePoint" />
            <mxPoint x="455" y="255" as="targetPoint" />
          </mxGeometry>
        </mxCell>
        <mxCell id="aeV7mFy18l9Bh3H_OyxH-34" value="&lt;span style=&quot;font-size: 14px;&quot;&gt;&lt;b&gt;View book inventory,&amp;nbsp;&lt;/b&gt;&lt;/span&gt;&lt;div&gt;&lt;span style=&quot;font-size: 14px;&quot;&gt;&lt;b&gt;process borrow/return&amp;nbsp;&lt;/b&gt;&lt;/span&gt;&lt;/div&gt;&lt;div&gt;&lt;span style=&quot;font-size: 14px;&quot;&gt;&lt;b&gt;request,&amp;nbsp;&lt;/b&gt;&lt;/span&gt;&lt;b style=&quot;font-size: 14px;&quot;&gt;track late fees&lt;/b&gt;&lt;/div&gt;" style="edgeLabel;html=1;align=center;verticalAlign=middle;resizable=0;points=[];" vertex="1" connectable="0" parent="aeV7mFy18l9Bh3H_OyxH-33">
          <mxGeometry x="-0.1642" y="-2" relative="1" as="geometry">
            <mxPoint x="18" y="-5" as="offset" />
          </mxGeometry>
        </mxCell>
        <mxCell id="aeV7mFy18l9Bh3H_OyxH-35" value="" style="endArrow=classic;html=1;rounded=0;exitX=1;exitY=0.75;exitDx=0;exitDy=0;exitPerimeter=0;entryX=0;entryY=0.433;entryDx=0;entryDy=0;entryPerimeter=0;" edge="1" parent="1" source="aeV7mFy18l9Bh3H_OyxH-3" target="aeV7mFy18l9Bh3H_OyxH-4">
          <mxGeometry width="50" height="50" relative="1" as="geometry">
            <mxPoint x="411" y="307" as="sourcePoint" />
            <mxPoint x="461" y="257" as="targetPoint" />
          </mxGeometry>
        </mxCell>
        <mxCell id="aeV7mFy18l9Bh3H_OyxH-36" value="&lt;span style=&quot;font-size: 14px;&quot;&gt;Delivers to the&lt;/span&gt;&lt;div&gt;&lt;span style=&quot;font-size: 14px;&quot;&gt;customer or admin&amp;nbsp;&lt;/span&gt;&lt;/div&gt;&lt;div&gt;&lt;span style=&quot;font-size: 14px;&quot;&gt;website&lt;/span&gt;&lt;/div&gt;" style="edgeLabel;html=1;align=center;verticalAlign=middle;resizable=0;points=[];" vertex="1" connectable="0" parent="aeV7mFy18l9Bh3H_OyxH-35">
          <mxGeometry x="-0.1877" y="1" relative="1" as="geometry">
            <mxPoint as="offset" />
          </mxGeometry>
        </mxCell>
        <mxCell id="aeV7mFy18l9Bh3H_OyxH-38" value="" style="endArrow=classic;html=1;rounded=0;exitX=0.5;exitY=1;exitDx=0;exitDy=0;exitPerimeter=0;entryX=0.25;entryY=0;entryDx=0;entryDy=0;entryPerimeter=0;dashed=1;dashPattern=8 8;" edge="1" parent="1" source="aeV7mFy18l9Bh3H_OyxH-4" target="aeV7mFy18l9Bh3H_OyxH-12">
          <mxGeometry width="50" height="50" relative="1" as="geometry">
            <mxPoint x="-68" y="42" as="sourcePoint" />
            <mxPoint x="-67" y="212" as="targetPoint" />
          </mxGeometry>
        </mxCell>
        <mxCell id="aeV7mFy18l9Bh3H_OyxH-39" value="&lt;span style=&quot;font-size: 14px;&quot;&gt;&lt;b&gt;Makes API calls to&lt;/b&gt;&lt;/span&gt;&lt;br&gt;&lt;div&gt;&lt;font style=&quot;font-size: 12px;&quot;&gt;[JSON/HTTPS]&lt;/font&gt;&lt;/div&gt;" style="edgeLabel;html=1;align=center;verticalAlign=middle;resizable=0;points=[];" vertex="1" connectable="0" parent="aeV7mFy18l9Bh3H_OyxH-38">
          <mxGeometry x="-0.1642" y="-2" relative="1" as="geometry">
            <mxPoint x="1" as="offset" />
          </mxGeometry>
        </mxCell>
        <mxCell id="aeV7mFy18l9Bh3H_OyxH-40" value="" style="endArrow=classic;html=1;rounded=0;exitX=0.5;exitY=1;exitDx=0;exitDy=0;exitPerimeter=0;entryX=0.75;entryY=0;entryDx=0;entryDy=0;entryPerimeter=0;dashed=1;dashPattern=8 8;" edge="1" parent="1" source="aeV7mFy18l9Bh3H_OyxH-8" target="aeV7mFy18l9Bh3H_OyxH-12">
          <mxGeometry width="50" height="50" relative="1" as="geometry">
            <mxPoint x="399" y="394" as="sourcePoint" />
            <mxPoint x="500" y="483" as="targetPoint" />
          </mxGeometry>
        </mxCell>
        <mxCell id="aeV7mFy18l9Bh3H_OyxH-41" value="&lt;span style=&quot;font-size: 14px;&quot;&gt;&lt;b&gt;Makes API calls to&lt;/b&gt;&lt;/span&gt;&lt;br&gt;&lt;div&gt;&lt;font style=&quot;font-size: 12px;&quot;&gt;[JSON/HTTPS]&lt;/font&gt;&lt;/div&gt;" style="edgeLabel;html=1;align=center;verticalAlign=middle;resizable=0;points=[];" vertex="1" connectable="0" parent="aeV7mFy18l9Bh3H_OyxH-40">
          <mxGeometry x="-0.1642" y="-2" relative="1" as="geometry">
            <mxPoint x="1" as="offset" />
          </mxGeometry>
        </mxCell>
        <mxCell id="aeV7mFy18l9Bh3H_OyxH-42" value="" style="endArrow=classic;html=1;rounded=0;exitX=1;exitY=0.25;exitDx=0;exitDy=0;exitPerimeter=0;entryX=0;entryY=0.75;entryDx=0;entryDy=0;entryPerimeter=0;dashed=1;dashPattern=8 8;" edge="1" parent="1" source="aeV7mFy18l9Bh3H_OyxH-12" target="aeV7mFy18l9Bh3H_OyxH-14">
          <mxGeometry width="50" height="50" relative="1" as="geometry">
            <mxPoint x="757" y="335" as="sourcePoint" />
            <mxPoint x="620" y="483" as="targetPoint" />
          </mxGeometry>
        </mxCell>
        <mxCell id="aeV7mFy18l9Bh3H_OyxH-43" value="&lt;span style=&quot;font-size: 14px;&quot;&gt;&lt;b&gt;Sends e-mail using&lt;/b&gt;&lt;/span&gt;&lt;br&gt;&lt;div&gt;&lt;font style=&quot;font-size: 12px;&quot;&gt;[SMTP]&lt;/font&gt;&lt;/div&gt;" style="edgeLabel;html=1;align=center;verticalAlign=middle;resizable=0;points=[];" vertex="1" connectable="0" parent="aeV7mFy18l9Bh3H_OyxH-42">
          <mxGeometry x="-0.1642" y="-2" relative="1" as="geometry">
            <mxPoint x="1" as="offset" />
          </mxGeometry>
        </mxCell>
        <mxCell id="aeV7mFy18l9Bh3H_OyxH-44" value="" style="endArrow=classic;html=1;rounded=0;exitX=1;exitY=0.5;exitDx=0;exitDy=0;exitPerimeter=0;entryX=0;entryY=0.5;entryDx=0;entryDy=0;entryPerimeter=0;dashed=1;dashPattern=8 8;" edge="1" parent="1" source="aeV7mFy18l9Bh3H_OyxH-12" target="aeV7mFy18l9Bh3H_OyxH-15">
          <mxGeometry width="50" height="50" relative="1" as="geometry">
            <mxPoint x="757" y="335" as="sourcePoint" />
            <mxPoint x="620" y="483" as="targetPoint" />
          </mxGeometry>
        </mxCell>
        <mxCell id="aeV7mFy18l9Bh3H_OyxH-45" value="&lt;span style=&quot;font-size: 14px;&quot;&gt;&lt;b&gt;Payment processing&lt;/b&gt;&lt;/span&gt;&lt;br&gt;&lt;div&gt;&lt;font style=&quot;font-size: 12px;&quot;&gt;[&lt;/font&gt;&lt;span style=&quot;text-align: start; white-space: normal;&quot;&gt;&lt;font face=&quot;Verdana&quot;&gt;ISO 8583&lt;/font&gt;&lt;/span&gt;&lt;span style=&quot;font-size: 12px;&quot;&gt;]&lt;/span&gt;&lt;/div&gt;" style="edgeLabel;html=1;align=center;verticalAlign=middle;resizable=0;points=[];" vertex="1" connectable="0" parent="aeV7mFy18l9Bh3H_OyxH-44">
          <mxGeometry x="-0.1642" y="-2" relative="1" as="geometry">
            <mxPoint x="1" as="offset" />
          </mxGeometry>
        </mxCell>
        <mxCell id="aeV7mFy18l9Bh3H_OyxH-46" value="" style="endArrow=classic;html=1;rounded=0;exitX=0.25;exitY=0;exitDx=0;exitDy=0;exitPerimeter=0;entryX=1;entryY=0.75;entryDx=0;entryDy=0;entryPerimeter=0;dashed=1;dashPattern=8 8;" edge="1" parent="1" source="aeV7mFy18l9Bh3H_OyxH-14" target="aeV7mFy18l9Bh3H_OyxH-16">
          <mxGeometry width="50" height="50" relative="1" as="geometry">
            <mxPoint x="680" y="513" as="sourcePoint" />
            <mxPoint x="1058" y="302" as="targetPoint" />
          </mxGeometry>
        </mxCell>
        <mxCell id="aeV7mFy18l9Bh3H_OyxH-47" value="&lt;span style=&quot;font-size: 14px;&quot;&gt;&lt;b&gt;Sends e-mails to&lt;/b&gt;&lt;/span&gt;" style="edgeLabel;html=1;align=center;verticalAlign=middle;resizable=0;points=[];" vertex="1" connectable="0" parent="aeV7mFy18l9Bh3H_OyxH-46">
          <mxGeometry x="-0.1642" y="-2" relative="1" as="geometry">
            <mxPoint x="1" as="offset" />
          </mxGeometry>
        </mxCell>
        <mxCell id="aeV7mFy18l9Bh3H_OyxH-48" value="" style="endArrow=classic;html=1;rounded=0;exitX=0;exitY=0.75;exitDx=0;exitDy=0;exitPerimeter=0;entryX=1;entryY=0.75;entryDx=0;entryDy=0;entryPerimeter=0;dashed=1;dashPattern=8 8;" edge="1" parent="1" source="aeV7mFy18l9Bh3H_OyxH-12" target="aeV7mFy18l9Bh3H_OyxH-13">
          <mxGeometry width="50" height="50" relative="1" as="geometry">
            <mxPoint x="680" y="573" as="sourcePoint" />
            <mxPoint x="1058" y="570" as="targetPoint" />
          </mxGeometry>
        </mxCell>
        <mxCell id="aeV7mFy18l9Bh3H_OyxH-49" value="&lt;span style=&quot;font-size: 14px;&quot;&gt;&lt;b&gt;Reads from and&amp;nbsp;&lt;/b&gt;&lt;/span&gt;&lt;div&gt;&lt;span style=&quot;font-size: 14px;&quot;&gt;&lt;b&gt;writes to&lt;/b&gt;&lt;/span&gt;&lt;br&gt;&lt;div&gt;&lt;font style=&quot;font-size: 12px;&quot;&gt;[Microsoft SQL Server]&lt;/font&gt;&lt;/div&gt;&lt;/div&gt;" style="edgeLabel;html=1;align=center;verticalAlign=middle;resizable=0;points=[];" vertex="1" connectable="0" parent="aeV7mFy18l9Bh3H_OyxH-48">
          <mxGeometry x="-0.1642" y="-2" relative="1" as="geometry">
            <mxPoint x="1" as="offset" />
          </mxGeometry>
        </mxCell>
        <object placeholders="1" c4Name="Mainframe Library System" c4Type="Software System" c4Description="Store all of the information about customers, books, etc." label="&lt;font style=&quot;font-size: 16px&quot;&gt;&lt;b&gt;%c4Name%&lt;/b&gt;&lt;/font&gt;&lt;div&gt;[%c4Type%]&lt;/div&gt;&lt;br&gt;&lt;div&gt;&lt;font style=&quot;font-size: 11px&quot;&gt;&lt;font color=&quot;#cccccc&quot;&gt;%c4Description%&lt;/font&gt;&lt;/div&gt;" id="aeV7mFy18l9Bh3H_OyxH-50">
          <mxCell style="rounded=1;whiteSpace=wrap;html=1;labelBackgroundColor=none;fillColor=light-dark(#929292, #7e7787);fontColor=#ffffff;align=center;arcSize=10;strokeColor=#736782;metaEdit=1;resizable=0;points=[[0.25,0,0],[0.5,0,0],[0.75,0,0],[1,0.25,0],[1,0.5,0],[1,0.75,0],[0.75,1,0],[0.5,1,0],[0.25,1,0],[0,0.75,0],[0,0.5,0],[0,0.25,0]];" vertex="1" parent="1">
            <mxGeometry x="1048" y="540" width="240" height="120" as="geometry" />
          </mxCell>
        </object>
        <mxCell id="aeV7mFy18l9Bh3H_OyxH-51" value="" style="endArrow=classic;html=1;rounded=0;exitX=1;exitY=0.75;exitDx=0;exitDy=0;exitPerimeter=0;entryX=0;entryY=0.5;entryDx=0;entryDy=0;entryPerimeter=0;dashed=1;dashPattern=8 8;" edge="1" parent="1" source="aeV7mFy18l9Bh3H_OyxH-12" target="aeV7mFy18l9Bh3H_OyxH-50">
          <mxGeometry width="50" height="50" relative="1" as="geometry">
            <mxPoint x="757" y="335" as="sourcePoint" />
            <mxPoint x="620" y="483" as="targetPoint" />
          </mxGeometry>
        </mxCell>
        <mxCell id="aeV7mFy18l9Bh3H_OyxH-52" value="&lt;span style=&quot;font-size: 14px;&quot;&gt;&lt;b&gt;Makes API calls to&lt;/b&gt;&lt;/span&gt;&lt;br&gt;&lt;div&gt;&lt;font style=&quot;font-size: 12px;&quot;&gt;[JSON/HTTPS]&lt;/font&gt;&lt;/div&gt;" style="edgeLabel;html=1;align=center;verticalAlign=middle;resizable=0;points=[];" vertex="1" connectable="0" parent="aeV7mFy18l9Bh3H_OyxH-51">
          <mxGeometry x="-0.1642" y="-2" relative="1" as="geometry">
            <mxPoint x="1" as="offset" />
          </mxGeometry>
        </mxCell>
        <mxCell id="aeV7mFy18l9Bh3H_OyxH-53" value="" style="endArrow=classic;html=1;rounded=0;exitX=0;exitY=0.5;exitDx=0;exitDy=0;exitPerimeter=0;entryX=1;entryY=0.75;entryDx=0;entryDy=0;entryPerimeter=0;dashed=1;dashPattern=8 8;" edge="1" parent="1" source="aeV7mFy18l9Bh3H_OyxH-14" target="aeV7mFy18l9Bh3H_OyxH-1">
          <mxGeometry width="50" height="50" relative="1" as="geometry">
            <mxPoint x="1118" y="212" as="sourcePoint" />
            <mxPoint x="602" y="-3" as="targetPoint" />
          </mxGeometry>
        </mxCell>
        <mxCell id="aeV7mFy18l9Bh3H_OyxH-54" value="&lt;span style=&quot;font-size: 14px;&quot;&gt;&lt;b&gt;Sends e-mails to&lt;/b&gt;&lt;/span&gt;" style="edgeLabel;html=1;align=center;verticalAlign=middle;resizable=0;points=[];" vertex="1" connectable="0" parent="aeV7mFy18l9Bh3H_OyxH-53">
          <mxGeometry x="-0.1642" y="-2" relative="1" as="geometry">
            <mxPoint x="-368" y="-134" as="offset" />
          </mxGeometry>
        </mxCell>
      </root>
    </mxGraphModel>
  </diagram>
</mxfile>
